# xmcd
#
# Track frame offsets:
#	150
#	9508
#	21000
#	31107
#	41703
#	51399
#	61988
#	73920
#	85245
#	96969
#	107113
#	116794
#
# Disc length: 1767 seconds
#
# Revision: 1
# Processed by: cddbd v1.5.1PL0 Copyright (c) Steve Scherf et al.
# Submitted via: audiograbber 1.83.01
#
DISCID=a106e50c
DTITLE=The Restarts - System Error
DYEAR=2003
DGENRE=Punk Rock
TTITLE0=Timewaster
TTITLE1=Walk Away
TTITLE2=Breaking My Balls
TTITLE3=System Error
TTITLE4=XQ28
TTITLE5=Crucified
TTITLE6=Age Of Fear
TTITLE7=Double Standards
TTITLE8=Wouldn't Wanna
TTITLE9=Never Know
TTITLE10=Frustration
TTITLE11=Hows Yer Father
EXTD=
EXTT0=
EXTT1=
EXTT2=
EXTT3=
EXTT4=
EXTT5=
EXTT6=
EXTT7=
EXTT8=
EXTT9=
EXTT10=
EXTT11=
PLAYORDER=
